<svg id="Layer_1" data-name="Layer 1" xmlns="http://www.w3.org/2000/svg" width="800" height="800" viewBox="0 0 800 800"><defs><style>.cls-1{fill:#1d1c1c;}.cls-1,.cls-10,.cls-11,.cls-12,.cls-13,.cls-2,.cls-3,.cls-4,.cls-5,.cls-6,.cls-7,.cls-8,.cls-9{fill-rule:evenodd;}.cls-15,.cls-2{fill:#2a398a;}.cls-3{fill:#b5b5b6;}.cls-14,.cls-4{fill:#fff;}.cls-5{fill:#fdfdfd;}.cls-6{fill:#db3030;}.cls-7{fill:#f9f9f9;}.cls-8{fill:#f5f5f5;}.cls-9{fill:#fbfbfb;}.cls-10{fill:#f7f8f8;}.cls-11{fill:#1e1c1c;}.cls-12{fill:#1f1e1e;}.cls-13{fill:#fefefe;}</style></defs><path class="cls-1" d="M385.33,50.69h31c1.19,1,2.59.5,3.91.49a7,7,0,0,0,2.54,0c2.13.18,4.26.38,6.39.55a343.51,343.51,0,0,1,56.91,9.37q87.78,22.2,154,84,71.31,66.78,98,161a337.24,337.24,0,0,1,11.44,63.05c.64,7.37,1,14.75,1.17,22.14q0,8.48,0,17c-.27,4.85-.23,9.71-.55,14.57a344.55,344.55,0,0,1-5,40.53,339.17,339.17,0,0,1-31.85,94.12q-55,106.78-163.5,158.59C507.29,736.26,462.45,747,415.52,749a353.42,353.42,0,0,1-77.88-5.28,336.38,336.38,0,0,1-101.75-35.26q-120-65.13-166.51-193.68a323.05,323.05,0,0,1-15.44-62.45,314.22,314.22,0,0,1-3.54-37.75,16.56,16.56,0,0,0-.3-6.83L50,405.81a1.78,1.78,0,0,0,.34-1.88,17,17,0,0,1-.22-6,29.11,29.11,0,0,0,.06-6.53c-.22-2.4.61-4.77.18-7.18a14.19,14.19,0,0,0,.08-2.83c-.16-1-.66-.57-1,0v-1.17c.26.48.69.8,1,.2a4.58,4.58,0,0,0,.2-1.72c.63-9.13,1.52-18.22,2.76-27.29a339.42,339.42,0,0,1,15.5-64.84,350.7,350.7,0,0,1,214.71-216,346.75,346.75,0,0,1,65.27-16.14,298.85,298.85,0,0,1,29.88-3.08C381,51.19,383.21,51.76,385.33,50.69ZM220,543.58l.17.1a2.86,2.86,0,0,0,2.17,1.17c-.36-.75-.56-1.37-1.19-1.68-.86-1.29-1.66-2.63-2.6-3.86-5.69-7.46-6.52-16-5.69-24.95.46-5,2.74-9.5,4.84-14,3.45-7.39,4.16-15.08,3.1-23-.36-2.69-.83-5.37-1.23-8.06-.1-.71-.56-1.72.49-1.94s1.06.92,1.29,1.6c.77,2.21,1.51,4.42,2.22,6.65A39.66,39.66,0,0,1,224,498.3a73,73,0,0,0-2.8,14.29,15,15,0,0,0,2.27,9.72c1.64,2.41,3.14,4.91,4.9,7.24a60.84,60.84,0,0,0,19,17,20.2,20.2,0,0,0,9.42,2.44c7.38.25,14.77.39,22.13.9,10.85.77,21.67,1.69,32.43,3.37a166.7,166.7,0,0,1,45.4,13.53c6.16,2.9,12.13,6.17,17.17,10.9,3.79,3.57,6.24,7.66,5.52,13.12a26,26,0,0,1-1.2,5.09,7.23,7.23,0,0,0-.22,4.57c.32,1.12.5,2.28.85,3.38.49,1.53.2,2.67-1.31,3.38s-2.79,1.38-4.21,2c-.59.26-1.27.81-1.89.25a1.94,1.94,0,0,1-.22-2.2c.52-1.46,1.17-2.87,1.68-4.34.24-.7.49-1.46-.57-1.94a4.87,4.87,0,0,1-2.5-3.75c-.63-3.06-2.11-5.79-3.1-8.64a1.79,1.79,0,0,0-1.47.3A37.91,37.91,0,0,1,354,592.38c-8.44,1.22-16.91.64-25.35.29-7.87-.33-15.72-1-23.6-.89a25.74,25.74,0,0,0-7.75,1.13,5,5,0,0,0-3.21,2.77,3.72,3.72,0,0,0-.35,2.56c.3.87,1.2.28,1.81.44a2.2,2.2,0,0,1,1.76,2.36c0,1.34-1.12,1-1.95,1.11l-1.45.16c-5.4.59-8.86,3.37-10.45,8.69a48.79,48.79,0,0,0-1.78,16.72,13.36,13.36,0,0,0,2.13,6.9c1.19,1.73,2.33,3.61,4.7,4,4.89.88,9.79,1.79,14.7.22a2.16,2.16,0,0,1,2.92,1c2.81,4.73,7,8,11.59,10.87a6.18,6.18,0,0,0,3.53,1c5.74-.05,11.49,0,17.23,0,2.94,0,3,0,3.28,3q.8,8.41,2.14,16.76c1.17,7.24,3,14.26,6.66,20.69a15.53,15.53,0,0,0,4.47,5.32c1.19.83,2.26,1.09,3.58-.14a25.88,25.88,0,0,1,7.34-4.69c6.76-2.91,10.59-2.78,15.43,3.69.06.08.13.15.18.23.69,1.21,1.6,1.37,2.95,1a26.09,26.09,0,0,0,5.83-1.73c1.27-.64,2.16-.49,2.85.89s1.71,2.82,2.53,4.25a8.86,8.86,0,0,0,3.75,3.55c1.11.59,1.84.69,2.66-.49a22.69,22.69,0,0,1,3.1-3.47,12.59,12.59,0,0,1,17.16-.53l3.57,3.25c.79-.11,1-.69,1.41-1.12a76.8,76.8,0,0,1,5.21-5.9,8.72,8.72,0,0,1,2.85-2,6.38,6.38,0,0,1,5.83.78c1.76,1.09,3,.76,4.35-.52,1.64-1.51,3.48-2.81,5.2-4.23,4.1-3.38,7.67-7.13,9.41-12.36.79-2.38,2-2.48,3.85-.7a7.83,7.83,0,0,1,1.52,2.12c.37.69.88,1.31,1.43,2.12.7-1.64,1.31-2.95,1.82-4.31a7.05,7.05,0,0,1,3.95-4.46c2.6-.93,2.87-2.78,2.8-5,0-1.55-.06-3.11-.25-4.65-.47-3.89-2.39-5.76-6.27-6s-7.73-.76-11.63-.65c-1,0-2.46.52-2.85-.77-.45-1.5,1.18-1.77,2.11-2.3,8.7-5,17.43-9.86,26.11-14.84a4.63,4.63,0,0,1,4.39-.32,78.32,78.32,0,0,0,14.9,4,56.36,56.36,0,0,0,19.39.41c1.68-.29,2.14-1,2.57-2.47a191.86,191.86,0,0,0,6.72-40.45,1.83,1.83,0,0,0-1.59-2.25A14.24,14.24,0,0,1,524,595c-.72-.56-2-.92-1.81-2.06s1.51-1.34,2.55-1.58c.19,0,.39,0,.58-.09,6-1.15,12-2.29,18-3.46a55.31,55.31,0,0,0,9.32-2.35c1.71-.66,3-1.64,3.2-3.93-5.65.56-11.15,1-16.64,1.65-9.46,1-18.91,2.19-28.38,3.2-10.33,1.12-20.68,2.11-31,3.2A307.11,307.11,0,0,1,440,591.6a31.76,31.76,0,0,1-10.3-1.77c-2.13-.8-4.16-1.89-4.91-4.24a11.71,11.71,0,0,1,.27-8.8,22.86,22.86,0,0,1,6.54-7.74,89.81,89.81,0,0,1,17.3-10.76,60.21,60.21,0,0,1,20.75-6.52c8.69-.92,17.36-2,26.1-2.22a92.05,92.05,0,0,1,12.53.47A72.08,72.08,0,0,1,527,555.25c6.87,2.78,13.84,5.1,21.33,5.56,7.92.48,15.31-1.12,20.95-6.86a37.8,37.8,0,0,0,11.13-25.31c.49-10.68.71-21.38,1.24-32.06a55.89,55.89,0,0,1,4.48-20.05c4-9,10.16-16.53,16.23-24.11a10.11,10.11,0,0,1,1-1c.35-.34.76-.7,1.25-.31s.19.87-.06,1.29c-1.34,2.26-2.7,4.5-4,6.77a88.48,88.48,0,0,0-10.64,27.31c-2.8,14.28-1.52,28.69-1.66,43.06a2.81,2.81,0,0,0,0,.29A24,24,0,0,1,583,548.57c-2.53,3.1-5.56,5.71-8.3,8.61-.61.65-1.51,1.14-1.6,2.48a48.32,48.32,0,0,0,11-4.25c5.25-2.76,8-7.16,8.69-13a71.89,71.89,0,0,0,.1-13.12c-.33-5.53-1.11-11-1-16.58.08-6.54,1.48-12.72,5.62-18,.46-.06,1,.21,1.28-.45,0-1,0-2,0-3,0-.08.13-.17.11-.23a3,3,0,0,0-.23-.48c0-2.43,0-4.86,0-7.29a52.24,52.24,0,0,1,1.63-13.87c2.41-9.45,5.81-18.49,11.34-26.63,1-1.45,1.89-2.94,2.78-4.45a257.8,257.8,0,0,0,21-43.84A239,239,0,0,0,644,364.87,248,248,0,0,0,650,305.56c-.13-6.33-.41-12.64-1-18.93a245.72,245.72,0,0,0-8.38-45.25A248.66,248.66,0,0,0,579.21,135.3c-5-5.14-10.23-10.09-15.66-14.82A249.56,249.56,0,0,0,264.34,99.59a252.11,252.11,0,0,0-56.09,49.69,245.89,245.89,0,0,0-37.46,60.54A243,243,0,0,0,153.39,269c-1.08,6.82-1.84,13.66-2.44,20.54-.58,6.59-.94,13.2-.89,19.77a236,236,0,0,0,1.49,26.15,228.78,228.78,0,0,0,4,25.27c1.52,6.47,2.56,12.94,2.11,19.61a19.16,19.16,0,0,0,.55,5.49c1.11,5,2.16,10.05,3.35,15,3.26,13.71,7.25,27.17,13.5,39.85,3.87,7.85,7.79,15.66,11.91,23.37,6.54,12.24,8.67,25.25,7.24,38.93-.74,7.14-1.87,14.23-2.23,21.41-.34,6.65-.09,13.2,2.27,19.53,2.77,7.45,6.62,14.08,13.68,18.31a37,37,0,0,0,10.44,4.43,3.37,3.37,0,0,0-1.48-2,91.44,91.44,0,0,1-9.69-10.09c-3.61-4.21-7-8.64-9.12-13.81-3.55-8.64-3.26-17.45-.68-26.27.63-2.14,1.33-4.27,2.14-6.35,3.31-8.53,3.95-17.35,3.23-26.38a68.4,68.4,0,0,0-7-25.72c-3.91-7.72-8.53-15-13-22.47a197.73,197.73,0,0,1-11-20.55c-4.6-10.36-7.52-21.25-10.27-32.19-.23-.88-.82-2.25.24-2.57s1.22,1.19,1.57,2c5,11.59,9.8,23.23,15,34.73,6.3,14,13.67,27.23,24.05,38.68,7.92,8.74,10.37,19.64,11,31,.43,7.57-1.51,14.81-4.59,21.76-2.19,5-4.24,10-4.86,15.52-.53,4.8.61,8.8,4,12.23a62.89,62.89,0,0,0,11.45,9A.5.5,0,0,0,220,543.58Zm378.8-23.09.06,1c0,.08-.14.2-.12.25a2.75,2.75,0,0,0,.32.44,98.92,98.92,0,0,0,.8,10.74c.56,6.66-.09,13-4.26,18.57a71.55,71.55,0,0,1-10.27,11.1c-1.58,1.38-2.91,3-4.56,4.3a23.06,23.06,0,0,0,12.18-5.8c5.43-5.36,7.88-12.13,9.08-19.44s-.43-14.3-2.42-21.25c1.08-8.14.37-16.21-.95-24.27-.21,4.92-.26,9.83-.2,14.74C598.54,514.1,598.72,517.3,598.84,520.49ZM176.21,461.37c-.06-1.05-.92-1.57-1.63-2.41a7.84,7.84,0,0,0,1,3.62c.37,1.41.72,2.82,1.1,4.22a164.9,164.9,0,0,1,5.79,32.33,123.7,123.7,0,0,1-1.19,29.64,48.06,48.06,0,0,0-.23,14.47A36.23,36.23,0,0,0,189,561.12c5.09,6.45,11.3,11.23,19.54,12.87a24.34,24.34,0,0,0,7.81.72c-2.82-1.29-5.11-2.31-7.37-3.4-4.85-2.33-9.47-5-13.08-9.1-4.25-4.8-6.42-10.56-7.47-16.82-1.34-7.94-1-15.91-.39-23.85.83-11.31.68-22.53-1.51-33.69A74.93,74.93,0,0,0,176.21,461.37ZM527.88,84v0c4.31,2.64,8.68,5.19,12.92,8a251.85,251.85,0,0,1,34.87,27.32,264.65,264.65,0,0,1,31.94,35.54,256.33,256.33,0,0,1,47.53,113.43A222.41,222.41,0,0,1,657.74,294a297.23,297.23,0,0,1-.89,40.81c-.73,7.43-1.92,14.81-3.31,22.15a250.76,250.76,0,0,1-13.37,46.07,256.6,256.6,0,0,1-28.29,52.56,13,13,0,0,0-1.59,2.78,74.39,74.39,0,0,0-4.52,35.77c.75,6.46,1.42,12.94,1.64,19.46.23,6.7.57,13.39,1.34,20.07,1.68,14.41-2.65,26.88-13,37.2A83.74,83.74,0,0,1,578,584a7.54,7.54,0,0,0-4.12,6.79,63,63,0,0,1-1.6,11.53c-2.1,9.3-4.13,18.63-8.11,27.37-6.71,14.76-17.75,23.48-34.29,24.71a134.39,134.39,0,0,1-22.43-.58c-1.71-.16-2.76.19-3.53,1.71-1.18,2.35-2.47,4.64-3.68,7-3,5.7-5.94,11.4-10.53,16a4,4,0,0,0-1.09,3.46c.48,5.91,1.12,11.81.77,17.77a18.75,18.75,0,0,1-7.93,14.89c-4.08,3-8.22,5.9-12.52,8.57a3.28,3.28,0,0,0-1.85,3.28c.11,1.75-.09,3.5-.11,5.25,0,2.6.08,2.68,2.63,2.16,10.3-2.1,20.48-4.65,30.53-7.75q91.92-28.33,156.08-100a339.41,339.41,0,0,0,85.93-214.85,323.23,323.23,0,0,0-.87-37.34,351.36,351.36,0,0,0-4.75-36.43,334.77,334.77,0,0,0-31.82-93A343.19,343.19,0,0,0,531.76,85.22,10.83,10.83,0,0,0,527.88,84ZM268.62,86.27a2,2,0,0,0-2.35,0A347.77,347.77,0,0,0,214,114.09a343.75,343.75,0,0,0-77.71,69.26A349.22,349.22,0,0,0,109,221.54,335.76,335.76,0,0,0,71.36,307c-3,10.68-5.54,21.45-7.44,32.38-1.44,8.33-2.64,16.68-3.55,25.08C59.7,370.65,59,376.85,58.89,383c-.35,15.46-.58,30.92.92,46.37.73,7.54,1.46,15.08,2.63,22.56a344.05,344.05,0,0,0,7.42,35.35A336.52,336.52,0,0,0,90,543a343,343,0,0,0,20,36.93,349.25,349.25,0,0,0,44.09,56.5,330.15,330.15,0,0,0,24.28,22.73,341.66,341.66,0,0,0,157.06,75.53c.62.12,1.34.41,2-.6-2.4-3.58-3.19-7.94-4.83-12-.25-.63-.49-1.27-.74-1.9-.49-1.25-1.13-1.8-2.66-1.32a16.72,16.72,0,0,1-9.2.18c-4.76-1.16-9.36-2.61-13.37-5.56-1.52-1.11-2.21-2.45-1.69-4.26a17.71,17.71,0,0,0,.4-4.92c0-4.77-.06-9.54,0-14.31a11.69,11.69,0,0,0-1.18-5.35,179.79,179.79,0,0,1-7.05-17.28,121.27,121.27,0,0,0-6.8-15.17,3.45,3.45,0,0,0-3.46-2.09c-1.58,0-3.07.48-4.63.53A124.11,124.11,0,0,1,256.68,649a72.69,72.69,0,0,1-26-9.89,36.28,36.28,0,0,1-17.49-26.34,93.2,93.2,0,0,1-1.33-18.87c.12-2.51-.63-3.85-3-4.89-10.25-4.56-19.34-10.74-26.59-19.48a59.43,59.43,0,0,1-13.23-27.22c-1.05-5.48-1-11-1.51-16.53a25.8,25.8,0,0,1,.16-6.69,74.24,74.24,0,0,0,.94-9.28,80.6,80.6,0,0,0-3.44-27.93c-3.4-10.85-6.75-21.72-9.3-32.82-1.45-6.34-2.7-12.73-3.59-19.17-1-7.32-1.44-14.71-1.72-22.09-.39-10.6-.17-21.22,0-31.83,0-1.25.39-2.42.06-3.75A241.07,241.07,0,0,1,145,342.72c-1-8.39-2.15-16.78-2.11-25.25,0-12-.51-23.94,1.08-35.86.76-5.68,1.28-11.4,2.21-17.05a261.73,261.73,0,0,1,6.53-28.4,254.43,254.43,0,0,1,29.34-65.26,244.11,244.11,0,0,1,28.09-36.83,272.54,272.54,0,0,1,23.74-22.85,258.86,258.86,0,0,1,29.18-21.33C264.85,88.77,266.6,87.59,268.62,86.27ZM334.28,687a6.08,6.08,0,0,0,2.36-5.26c-.16-7.86-2.62-15.06-6.4-21.86-1.88-3.37-2.19-3.48-5.91-2.63-2.6.6-3.5,2-2.79,4.74a31.71,31.71,0,0,0,1.75,5.25,5.12,5.12,0,0,1-.62,5.84c-6.09,8.44-7.65,18.11-7.15,28.25.2,3.84,2.17,6.27,5.93,7.36,4.91,1.43,7-1.23,7.68-4.28a35.65,35.65,0,0,0,.76-6.36c.16-5.55-.44-11.06-.72-16.59,0-.52,0-1,.54-1.22a.83.83,0,0,1,1.14.59C331.56,683.08,333.56,684.56,334.28,687Zm90.61,33.79c-.11-4.86-1.27-9.71-4.77-13.7-4.19-4.8-10-4.48-13.85.61a20.52,20.52,0,0,0-3.85,10.2,22,22,0,0,0,4,16.24c4.15,5.62,10.79,5.4,14.73-.39A22.73,22.73,0,0,0,424.89,720.8Zm38.18-20.22a11.41,11.41,0,0,0,0-1.17c-.32-2.7,0-5.46-.64-8.12s-1.59-2.94-3.89-1.54c-4.39,2.66-6.57,6.79-7.76,11.54a54.49,54.49,0,0,0-1.28,20.51,12.16,12.16,0,0,0,4,7.55,3.23,3.23,0,0,0,5.08-.49,24.27,24.27,0,0,0,4.21-11.66C463.11,711.68,462.63,706.12,463.07,700.58ZM357.84,722.07a21.5,21.5,0,0,0,1.89,9.86c1.7,3.68,5,5.69,8.83,1.35a13.13,13.13,0,0,0,1.71-2.34,30.14,30.14,0,0,0,3.14-7.82c1.33-5.56,1.8-11.11.19-16.71a10.6,10.6,0,0,0-2.94-5.27c-1.56-1.4-2.67-1.53-4.51-.57-2.57,1.34-3.95,3.7-5.1,6.17A34.65,34.65,0,0,0,357.84,722.07Zm21.78-3.29c.19,4.38.79,8.87,2.92,13a14.34,14.34,0,0,0,2.67,3.8c3,2.91,6.21,2.69,8.66-.64a13.37,13.37,0,0,0,1.79-3.33,26.87,26.87,0,0,0,.77-15.48,22.27,22.27,0,0,0-3.85-8.73c-3.3-4.32-7.47-4.08-10.3.54C380.28,711.23,380,714.9,379.62,718.78ZM429,717.52a31,31,0,0,0,1.08,10c.84,2.71,1.79,5.35,4,7.28a4.13,4.13,0,0,0,6,0,9.7,9.7,0,0,0,2.49-3.56,30.2,30.2,0,0,0,.32-23.24,11.59,11.59,0,0,0-2.45-4c-2.4-2.53-4.92-2.48-7.25.14a13.43,13.43,0,0,0-2.36,4A26.13,26.13,0,0,0,429,717.52ZM351.73,716c-.19-5.71-.43-10.76-1.65-15.68-.84-3.39-1.69-6.81-3.85-9.66-1.49-2-2.87-1.87-4,.3a21.53,21.53,0,0,0-1.94,7.28,59.27,59.27,0,0,0,.14,14.52c.63,5.12,1.55,10.19,4,14.83.68,1.3,1.48,2.93,3,2.9,1.8,0,2.14-2,2.7-3.41C351.69,723.26,351.26,719.19,351.73,716Zm119-4.62c2.49-2.36,4.71-4.52,7-6.61a7.54,7.54,0,0,0,2.5-6,141.07,141.07,0,0,0-1.71-18.22c-.2-1.4-1-1.75-2.27-1.57a6.27,6.27,0,0,0-4.91,4.08c-2.9,6.45-4.63,13.18-4.18,20.3A13.06,13.06,0,0,0,470.72,711.33Zm66-77c-.36,1.19.11,2.34.11,3.5,0,.78.15,1.67,1,1.92a2.15,2.15,0,0,0,2.49-1c.48-.73,1-1.44,1.43-2.2a65.57,65.57,0,0,0,6.51-16.42,53.48,53.48,0,0,0,2.12-13.77,9.43,9.43,0,0,0-.64-4,1.11,1.11,0,0,0-1.88-.5,7.93,7.93,0,0,0-2.17,2.7A69.58,69.58,0,0,0,536.77,634.35ZM246.94,604.67a53.71,53.71,0,0,0,.38,10.68c1,6,3.64,11.43,6.13,16.9,2.28,5,2.32,5,7.82,4.31.19-.53-.15-.93-.36-1.34a34.8,34.8,0,0,1-3.22-8.69,69.46,69.46,0,0,1-1-19.09c.14-2.06.18-2.07-1.92-2.16A55.4,55.4,0,0,1,246.94,604.67Zm1.56,31.27c-1-1.86-1.8-3.58-2.76-5.22A45.58,45.58,0,0,1,239.1,606c.05-1.62-.45-2.24-2.12-2.21a10.23,10.23,0,0,1-3.11-.71c-.83-.25-1.23,0-1.56.78-1.89,4.43-2.72,9-1,13.61a39.81,39.81,0,0,0,10.92,16A9,9,0,0,0,248.5,635.94ZM277,605.22a43.06,43.06,0,0,1-9.61.61c-1.41-.07-1.93.57-2,1.81a9.2,9.2,0,0,0-.11,1.73,104.06,104.06,0,0,0,2.26,16.39c.79,3.2,1.5,6.43,3.22,9.3a5.87,5.87,0,0,0,6.23,3.16C271.64,627.3,272.21,616.48,277,605.22Zm35.67,74.93a7.83,7.83,0,0,0,.87-2.09,55.86,55.86,0,0,0,1.44-8.3,32.38,32.38,0,0,0-.41-11.57c-.24-1-.12-2.25-1.13-2.87a13.88,13.88,0,0,0-5-2.23c-2.18-.36-3.09.36-3.08,2.56,0,4.47.05,8.94.22,13.4C305.73,674.05,307.63,678.07,312.65,680.15Zm169.87-16.69a43.22,43.22,0,0,0,.36,6.35c.06.66-.14,1.51.53,1.84.85.41,1.36-.46,1.95-.89a4.52,4.52,0,0,0,.63-.61c4-4.54,7.05-9.72,10.05-14.93,1.24-2.16.15-3.9-2.32-4.49a23.37,23.37,0,0,0-6.07-.46,3.74,3.74,0,0,0-3.83,2.83A30.5,30.5,0,0,0,482.52,663.46ZM238.21,581.78c-2.68,0-5.21,2.3-5.08,4.58.12,2.1,2.48,4,5,4.07,2.63,0,5.37-2.28,5.26-4.43S240.79,581.75,238.21,581.78ZM271.91,598c.41-.11,1.56.18,1.83-1.13a32.06,32.06,0,0,0,.6-4,2.07,2.07,0,0,0-1.37-2.3c-3.31-1.2-7.89,1.86-8.16,5.4a1,1,0,0,0,.88,1.2A41,41,0,0,0,271.91,598Zm-16.3-3.73c2.29,0,4.62-1.57,4.66-3.17s-2.4-3.51-4.74-3.46-4.49,1.73-4.48,3.38S253.25,594.21,255.61,594.22Zm29.63,5c2.77.15,3.34-.47,2.87-2.89a16,16,0,0,0-.4-1.69c-.58-2-1.81-2.88-3.56-2.66-2.26.28-3.36,1.32-3.41,3.21-.05,2.45.65,3.33,3,3.76ZM269.37,85.36l-.1.13.17,0Zm1.17-.58-.09.11.14,0Z"/><path class="cls-2" d="M50.15,391.38a28.44,28.44,0,0,1,0,6.52,17,17,0,0,0,.22,6,1.79,1.79,0,0,1-.35,1.89,5,5,0,0,1-.56.07v-14.6Z"/><path class="cls-2" d="M50.4,414.56c-.34-.06-.71-.48-1,.1v-7l.69.08A16.74,16.74,0,0,1,50.4,414.56Z"/><path class="cls-3" d="M50.15,391.38l-.74-.09v-7l.93-.09C50.76,386.6,49.94,389,50.15,391.38Z"/><path class="cls-2" d="M378.74,51.26a.49.49,0,0,0-.42-.57h7C383.21,51.76,381,51.19,378.74,51.26Z"/><path class="cls-4" d="M50.34,384.19l-.93.08v-2.92c.35-.56.84-1,1,0A14.19,14.19,0,0,1,50.34,384.19Z"/><path class="cls-2" d="M420.21,51.18c-1.32,0-2.72.54-3.91-.49h4.09A.74.74,0,0,0,420.21,51.18Z"/><path class="cls-3" d="M420.21,51.18a.86.86,0,0,1,.18-.49h2.34a.87.87,0,0,0,0,.53A7,7,0,0,1,420.21,51.18Z"/><path class="cls-3" d="M50.1,407.73l-.68-.09v-1.75l.56-.07Z"/><path class="cls-5" d="M219.47,543.17a62.83,62.83,0,0,1-11.45-9c-3.39-3.43-4.53-7.44-4-12.23.62-5.53,2.67-10.55,4.86-15.52,3.08-6.95,5-14.2,4.59-21.77-.64-11.32-3.09-22.21-11-30.95-10.38-11.45-17.75-24.71-24-38.68-5.18-11.5-10-23.15-15-34.73-.35-.83-.39-2.38-1.57-2s-.46,1.69-.24,2.58c2.75,10.94,5.67,21.83,10.27,32.18a196.72,196.72,0,0,0,11,20.55c4.42,7.44,9,14.75,13,22.48a68.35,68.35,0,0,1,7,25.71c.73,9,.08,17.86-3.23,26.39-.81,2.08-1.51,4.21-2.14,6.35-2.58,8.82-2.87,17.62.68,26.26,2.13,5.18,5.51,9.6,9.12,13.82a91.35,91.35,0,0,0,9.69,10.08,3.39,3.39,0,0,1,1.48,2A36.51,36.51,0,0,1,208,562.25c-7.07-4.23-10.92-10.87-13.69-18.31-2.36-6.33-2.61-12.88-2.27-19.54.36-7.18,1.49-14.27,2.23-21.4,1.43-13.68-.7-26.69-7.24-38.93-4.12-7.71-8-15.53-11.91-23.37-6.24-12.68-10.24-26.15-13.5-39.85-1.19-5-2.24-10-3.35-15.05a19.16,19.16,0,0,1-.55-5.49c.45-6.66-.59-13.14-2.11-19.61a228.6,228.6,0,0,1-4-25.26,236,236,0,0,1-1.49-26.15c-.05-6.58.31-13.19.89-19.77.6-6.88,1.36-13.73,2.44-20.54a243.18,243.18,0,0,1,17.4-59.16,245.65,245.65,0,0,1,37.46-60.53,252.62,252.62,0,0,1,56.09-49.7,249.36,249.36,0,0,1,299.21,20.9c5.43,4.73,10.63,9.68,15.66,14.81a248.5,248.5,0,0,1,69.85,151.33c.57,6.3.85,12.61,1,18.93A248,248,0,0,1,644,364.88a239,239,0,0,1-8.71,29.64,258.16,258.16,0,0,1-21,43.84c-.89,1.5-1.8,3-2.78,4.44-5.53,8.14-8.93,17.19-11.34,26.64a52.16,52.16,0,0,0-1.63,13.86c0,2.44,0,4.87,0,7.3l.12.71c0,1,0,2,0,3a1,1,0,0,0-1.28.46c-4.14,5.29-5.53,11.47-5.62,18-.08,5.55.7,11.06,1,16.59a71.77,71.77,0,0,1-.1,13.11c-.71,5.82-3.44,10.21-8.69,13a47.41,47.41,0,0,1-11,4.25c.09-1.34,1-1.83,1.6-2.48,2.74-2.89,5.77-5.51,8.3-8.61a24,24,0,0,0,5.31-18.77,2.81,2.81,0,0,1,0-.29c.14-14.37-1.14-28.78,1.66-43.06a88.28,88.28,0,0,1,10.64-27.31c1.31-2.28,2.67-4.52,4-6.78.24-.42.57-.88.06-1.28s-.9,0-1.25.3a11.23,11.23,0,0,0-1,1c-6.07,7.59-12.23,15.1-16.23,24.11a56,56,0,0,0-4.48,20.06c-.53,10.68-.75,21.37-1.24,32.06A37.84,37.84,0,0,1,569.29,554c-5.64,5.74-13,7.34-20.95,6.85-7.49-.45-14.46-2.78-21.33-5.56A72.46,72.46,0,0,0,508.24,550a90.47,90.47,0,0,0-12.53-.47c-8.74.19-17.41,1.3-26.1,2.21a60,60,0,0,0-20.75,6.53,89.77,89.77,0,0,0-17.3,10.75,23,23,0,0,0-6.54,7.74,11.74,11.74,0,0,0-.27,8.81c.75,2.35,2.78,3.43,4.91,4.23A31.24,31.24,0,0,0,440,591.6a308.88,308.88,0,0,0,39.87-2.06c10.33-1.09,20.68-2.09,31-3.2,9.47-1,18.92-2.16,28.38-3.2,5.49-.6,11-1.1,16.64-1.66-.16,2.3-1.49,3.28-3.2,3.94a54.34,54.34,0,0,1-9.32,2.34q-9,1.75-18,3.47c-.19,0-.39,0-.58.08-1,.24-2.31.41-2.55,1.59s1.1,1.5,1.81,2.05a14.11,14.11,0,0,0,5.13,2.69,1.82,1.82,0,0,1,1.59,2.24A192,192,0,0,1,524,640.34c-.43,1.51-.89,2.18-2.57,2.46a56.12,56.12,0,0,1-19.39-.4,79.07,79.07,0,0,1-14.9-4,4.66,4.66,0,0,0-4.39.31c-8.68,5-17.41,9.89-26.11,14.84-.93.53-2.56.81-2.11,2.31.39,1.29,1.85.8,2.85.77,3.9-.12,7.76.4,11.63.65s5.8,2.12,6.27,6c.19,1.54.21,3.1.25,4.66.07,2.2-.2,4.05-2.8,5a7,7,0,0,0-3.95,4.45c-.51,1.36-1.12,2.68-1.82,4.32a24.83,24.83,0,0,1-1.43-2.13,7.94,7.94,0,0,0-1.52-2.11c-1.88-1.79-3.06-1.68-3.85.7-1.74,5.22-5.31,9-9.41,12.35-1.73,1.42-3.56,2.72-5.2,4.23-1.4,1.29-2.59,1.62-4.35.53a6.38,6.38,0,0,0-5.83-.78,8.69,8.69,0,0,0-2.85,2c-1.92,1.81-3.49,3.92-5.21,5.9-.37.44-.62,1-1.41,1.13l-3.57-3.26a12.61,12.61,0,0,0-17.16.53,23.25,23.25,0,0,0-3.1,3.48c-.82,1.18-1.55,1.08-2.66.49a9,9,0,0,1-3.75-3.56c-.82-1.43-1.78-2.78-2.53-4.25s-1.58-1.53-2.85-.88a26.14,26.14,0,0,1-5.82,1.72c-1.35.33-2.27.17-3-1-.05-.08-.12-.15-.18-.23-4.84-6.47-8.67-6.61-15.43-3.69a25.67,25.67,0,0,0-7.34,4.69c-1.32,1.23-2.39,1-3.58.13a15.49,15.49,0,0,1-4.47-5.31c-3.65-6.43-5.49-13.46-6.65-20.69q-1.35-8.34-2.15-16.76c-.29-3-.34-3-3.28-3-5.74,0-11.49,0-17.23,0a6.17,6.17,0,0,1-3.53-1c-4.59-2.87-8.78-6.14-11.59-10.88a2.15,2.15,0,0,0-2.92-1c-4.91,1.57-9.81.65-14.7-.23-2.37-.42-3.51-2.31-4.7-4a13.36,13.36,0,0,1-2.13-6.9A49,49,0,0,1,283.41,611c1.59-5.32,5-8.1,10.45-8.7l1.45-.15c.83-.08,1.93.23,1.95-1.12a2.19,2.19,0,0,0-1.76-2.35c-.61-.17-1.51.42-1.81-.45a3.69,3.69,0,0,1,.35-2.55,5,5,0,0,1,3.21-2.78,25.46,25.46,0,0,1,7.75-1.12c7.88-.09,15.73.56,23.6.88,8.44.36,16.91.94,25.35-.28a37.93,37.93,0,0,0,11.37-3.52,1.8,1.8,0,0,1,1.47-.3c1,2.86,2.47,5.58,3.1,8.64a4.84,4.84,0,0,0,2.5,3.75c1.06.49.81,1.25.57,1.94-.5,1.47-1.16,2.89-1.68,4.35a1.94,1.94,0,0,0,.22,2.2c.62.55,1.31,0,1.89-.25,1.42-.63,2.81-1.34,4.21-2s1.8-1.86,1.31-3.38c-.35-1.1-.53-2.27-.85-3.38a7.26,7.26,0,0,1,.22-4.58,26,26,0,0,0,1.2-5.09c.72-5.46-1.73-9.54-5.52-13.11-5-4.73-11-8-17.17-10.9a166.35,166.35,0,0,0-45.4-13.53c-10.76-1.68-21.58-2.61-32.43-3.37-7.36-.52-14.75-.66-22.13-.9a20.09,20.09,0,0,1-9.42-2.45,60.68,60.68,0,0,1-19-17c-1.76-2.33-3.26-4.84-4.9-7.25a15,15,0,0,1-2.27-9.72,72.9,72.9,0,0,1,2.8-14.28,39.69,39.69,0,0,0-.42-22.7c-.71-2.22-1.45-4.44-2.22-6.64-.23-.68-.25-1.82-1.29-1.61s-.59,1.23-.49,1.94c.4,2.69.87,5.37,1.23,8.07,1.06,7.95.35,15.64-3.1,23-2.1,4.47-4.38,9-4.84,14-.83,8.9,0,17.5,5.69,24.95.94,1.24,1.74,2.58,2.6,3.87-.19.42-.62.41-1,.51l-.17-.11C220,543.23,219.8,543.12,219.47,543.17ZM164.71,310a136.69,136.69,0,0,0,.44,13.69,234.26,234.26,0,0,0,7.69,46.22A233.65,233.65,0,0,0,355,538c6.66,1.23,13.38,2.05,19.83,4.51,9.35,3.58,17.79,8.24,23.89,16.46,1.38,1.85,1.87,1.8,3.32,0,3.54-4.32,7.26-8.47,12.26-11.08,8.16-4.27,16.59-7.89,25.74-9.57A233.53,233.53,0,0,0,559.49,139.25a238.87,238.87,0,0,0-30.84-24.87,232.09,232.09,0,0,0-127.88-39.6c-5,0-10.1,0-15.16.29-7.29.39-14.55,1.05-21.74,2.14a232.6,232.6,0,0,0-74.41,24.36,235.74,235.74,0,0,0-55.72,41,234.88,234.88,0,0,0-52.91,80.25C170.05,250.25,164.7,278.74,164.71,310Zm248,300.7c-.93.23-1,.75-1.2,1.18a94.27,94.27,0,0,0-8.9,32.1c-.73,7.68-.11,15.12,3.21,22.2,1.21,2.58,1.5,2.69,3.12.51,4-5.38,7.9-10.81,11.9-16.18a2.34,2.34,0,0,0,.16-2.91,38.3,38.3,0,0,1-3.49-8.61,111.13,111.13,0,0,1-4.17-24.35C413.24,613.37,413.46,612,412.68,610.72ZM396.07,650c0-12.29-4-28.6-9.18-38.29-.09-.17-.21-.33-.3-.5a.66.66,0,0,0-.69-.4.63.63,0,0,0-.55.57,8.64,8.64,0,0,0,0,.88c-.91,12.34-2.37,24.55-8.07,35.81a1.85,1.85,0,0,0,.19,2.15c4.13,5.64,8.23,11.29,12.41,16.89,1.23,1.66,1.63,1.56,2.52-.32A35.88,35.88,0,0,0,396.07,650Z"/><path class="cls-6" d="M527.88,84a10.83,10.83,0,0,1,3.88,1.2A343.19,343.19,0,0,1,704.7,244.55a334.77,334.77,0,0,1,31.82,93A351.36,351.36,0,0,1,741.27,374a325.49,325.49,0,0,1,.87,37.34,339.41,339.41,0,0,1-85.93,214.85q-64.15,71.65-156.08,100c-10.05,3.1-20.23,5.65-30.53,7.75-2.55.52-2.66.44-2.63-2.16,0-1.75.22-3.5.11-5.25a3.28,3.28,0,0,1,1.85-3.28c4.3-2.68,8.44-5.57,12.52-8.57a18.75,18.75,0,0,0,7.93-14.89c.35-6-.29-11.86-.77-17.77a4,4,0,0,1,1.09-3.46c4.59-4.64,7.56-10.34,10.53-16,1.21-2.33,2.5-4.62,3.68-7,.77-1.52,1.82-1.87,3.53-1.71a135.47,135.47,0,0,0,22.43.58c16.54-1.23,27.58-9.95,34.29-24.71,4-8.74,6-18.07,8.11-27.37a63,63,0,0,0,1.6-11.53A7.54,7.54,0,0,1,578,584a84,84,0,0,0,17.81-13.12c10.3-10.32,14.63-22.79,13-37.2-.77-6.68-1.11-13.37-1.34-20.07-.22-6.52-.89-13-1.64-19.46a74.39,74.39,0,0,1,4.52-35.77,13,13,0,0,1,1.59-2.78,256.6,256.6,0,0,0,28.29-52.56A251.55,251.55,0,0,0,653.54,357c1.39-7.34,2.57-14.72,3.31-22.15a295.65,295.65,0,0,0,.88-40.81,218.32,218.32,0,0,0-2.59-25.78,256.11,256.11,0,0,0-47.52-113.43,265.26,265.26,0,0,0-31.94-35.54A252.62,252.62,0,0,0,540.81,92c-4.24-2.76-8.61-5.31-12.92-8Z"/><path class="cls-2" d="M268.62,86.27c-2,1.32-3.77,2.5-5.55,3.62a261.36,261.36,0,0,0-29.18,21.33,269.79,269.79,0,0,0-23.74,22.86,243.53,243.53,0,0,0-28.09,36.82,253.4,253.4,0,0,0-29.34,65.27,258.34,258.34,0,0,0-6.53,28.4c-.93,5.64-1.45,11.36-2.21,17-1.59,11.92-1,23.9-1.09,35.86,0,8.48,1.08,16.86,2.12,25.26a241.43,241.43,0,0,0,5.64,29.46c.33,1.32-.05,2.5-.06,3.74-.13,10.61-.36,21.23,0,31.84.28,7.37.72,14.76,1.72,22.08.89,6.44,2.14,12.83,3.59,19.18,2.54,11.1,5.9,22,9.3,32.81a80.64,80.64,0,0,1,3.43,27.94,72.23,72.23,0,0,1-.93,9.27,26.26,26.26,0,0,0-.17,6.69c.49,5.51.47,11,1.51,16.53a59.35,59.35,0,0,0,13.24,27.22c7.25,8.74,16.33,14.92,26.59,19.48,2.32,1,3.08,2.38,3,4.89a91.78,91.78,0,0,0,1.33,18.87,36.28,36.28,0,0,0,17.49,26.34,72.62,72.62,0,0,0,26,9.89,122.73,122.73,0,0,0,25.54,1.67c1.56,0,3-.51,4.62-.53a3.44,3.44,0,0,1,3.46,2.09,120.54,120.54,0,0,1,6.81,15.17,182.32,182.32,0,0,0,7,17.28,11.59,11.59,0,0,1,1.18,5.35c-.07,4.77,0,9.54,0,14.31a17.44,17.44,0,0,1-.4,4.93c-.52,1.8.18,3.14,1.69,4.25,4,2.95,8.62,4.4,13.37,5.56a16.81,16.81,0,0,0,9.2-.17c1.54-.49,2.18.06,2.67,1.31.25.63.48,1.27.74,1.9,1.63,4,2.42,8.39,4.83,12-.64,1-1.35.72-2,.6a340.48,340.48,0,0,1-157.06-75.53,332.32,332.32,0,0,1-24.29-22.73A349.75,349.75,0,0,1,110,579.89,342,342,0,0,1,90,543a337.18,337.18,0,0,1-20.11-55.64A344.24,344.24,0,0,1,62.44,452c-1.17-7.47-1.9-15-2.63-22.56C58.31,414,58.54,398.5,58.89,383c.14-6.19.81-12.39,1.48-18.58.91-8.4,2.11-16.75,3.55-25.08,1.9-10.93,4.47-21.69,7.44-32.37A335.76,335.76,0,0,1,109,221.55a348.38,348.38,0,0,1,27.31-38.2A343.75,343.75,0,0,1,214,114.09a346.81,346.81,0,0,1,52.25-27.8A2,2,0,0,1,268.62,86.27Z"/><path class="cls-7" d="M334.28,687c-.72-2.45-2.72-3.93-3.43-6.17a.83.83,0,0,0-1.14-.59c-.54.22-.56.7-.54,1.22.28,5.53.88,11,.72,16.59a35.65,35.65,0,0,1-.76,6.36c-.64,3.05-2.77,5.7-7.68,4.28-3.76-1.1-5.73-3.52-5.93-7.36-.5-10.14,1.06-19.81,7.15-28.25a5.11,5.11,0,0,0,.61-5.84,31.68,31.68,0,0,1-1.74-5.25c-.72-2.7.19-4.14,2.79-4.74,3.72-.85,4-.74,5.9,2.63,3.79,6.8,6.25,14,6.4,21.86A6,6,0,0,1,334.28,687Z"/><path class="cls-8" d="M176.21,461.37a75.12,75.12,0,0,1,10.31,26.48c2.19,11.15,2.34,22.38,1.5,33.68-.58,8-.94,15.92.39,23.86,1.06,6.26,3.23,12,7.48,16.82,3.61,4.07,8.23,6.77,13.07,9.1,2.27,1.08,4.56,2.11,7.37,3.4a24.31,24.31,0,0,1-7.8-.72c-8.24-1.64-14.46-6.42-19.54-12.87a36.23,36.23,0,0,1-7.93-17.88,48.06,48.06,0,0,1,.23-14.47,124.22,124.22,0,0,0,1.19-29.64,165.64,165.64,0,0,0-5.79-32.33c-.38-1.4-.74-2.81-1.1-4.22C175.8,462.18,175.63,461.59,176.21,461.37Z"/><path class="cls-9" d="M424.89,720.8a22.73,22.73,0,0,1-3.75,13c-3.94,5.79-10.58,6-14.73.39a22,22,0,0,1-4-16.24,20.44,20.44,0,0,1,3.86-10.2c3.88-5.09,9.65-5.41,13.85-.61C423.62,711.09,424.78,715.94,424.89,720.8Z"/><path class="cls-7" d="M463.07,700.58c-.44,5.54,0,11.1-.31,16.62a24.27,24.27,0,0,1-4.21,11.66,3.23,3.23,0,0,1-5.08.49,12.14,12.14,0,0,1-4-7.55,54.47,54.47,0,0,1,1.27-20.51c1.19-4.75,3.38-8.88,7.76-11.54,2.3-1.4,3.23-1.11,3.89,1.54s.32,5.42.64,8.12A11.41,11.41,0,0,1,463.07,700.58Z"/><path class="cls-9" d="M357.84,722.07a34.65,34.65,0,0,1,3.21-15.33c1.14-2.47,2.53-4.84,5.1-6.17,1.84-1,3-.83,4.51.57a10.68,10.68,0,0,1,2.94,5.27c1.61,5.6,1.14,11.15-.19,16.71a30.14,30.14,0,0,1-3.14,7.82,13.89,13.89,0,0,1-1.71,2.34c-3.86,4.34-7.13,2.33-8.83-1.35A21.5,21.5,0,0,1,357.84,722.07Z"/><path class="cls-9" d="M379.62,718.78c.34-3.88.66-7.55,2.66-10.82,2.83-4.62,7-4.86,10.3-.54a22.35,22.35,0,0,1,3.85,8.73,26.87,26.87,0,0,1-.77,15.48,13.13,13.13,0,0,1-1.79,3.32c-2.45,3.33-5.66,3.56-8.66.65a14.34,14.34,0,0,1-2.67-3.8A30.75,30.75,0,0,1,379.62,718.78Z"/><path class="cls-9" d="M429,717.52a26.13,26.13,0,0,1,1.84-9.36,13.43,13.43,0,0,1,2.36-4c2.33-2.61,4.85-2.67,7.25-.14a11.59,11.59,0,0,1,2.45,4,30.2,30.2,0,0,1-.32,23.24,9.7,9.7,0,0,1-2.49,3.56,4.13,4.13,0,0,1-6,0c-2.22-1.93-3.17-4.57-4-7.28A31,31,0,0,1,429,717.52Z"/><path class="cls-10" d="M351.73,716c-.48,3.24-.05,7.31-1.55,11.08-.56,1.41-.9,3.37-2.7,3.41-1.52,0-2.32-1.6-3-2.9-2.45-4.64-3.38-9.71-4-14.83a59.77,59.77,0,0,1-.15-14.52,21.78,21.78,0,0,1,1.95-7.28c1.08-2.16,2.46-2.26,4-.3,2.16,2.85,3,6.27,3.85,9.66C351.3,705.19,351.54,710.24,351.73,716Z"/><path class="cls-7" d="M470.72,711.33a13.06,13.06,0,0,1-3.57-8c-.45-7.12,1.28-13.85,4.18-20.3a6.27,6.27,0,0,1,4.91-4.08c1.23-.18,2.07.17,2.27,1.57a140.74,140.74,0,0,1,1.71,18.22,7.54,7.54,0,0,1-2.5,6C475.43,706.81,473.21,709,470.72,711.33Z"/><path class="cls-10" d="M536.77,634.35a69.58,69.58,0,0,1,9-29.81,8,8,0,0,1,2.17-2.7,1.11,1.11,0,0,1,1.88.5,9.43,9.43,0,0,1,.64,4,53.48,53.48,0,0,1-2.12,13.77,65.57,65.57,0,0,1-6.51,16.42c-.44.76-1,1.47-1.43,2.2a2.16,2.16,0,0,1-2.49,1c-.88-.24-1-1.13-1-1.91C536.88,636.69,536.41,635.54,536.77,634.35Z"/><path class="cls-10" d="M246.94,604.67a54,54,0,0,0,7.86.61c2.1.09,2.06.1,1.92,2.16a69.46,69.46,0,0,0,1,19.09,34.8,34.8,0,0,0,3.22,8.69c.21.41.55.81.36,1.35-5.5.65-5.54.67-7.82-4.32-2.49-5.47-5.12-10.88-6.13-16.9A53.71,53.71,0,0,1,246.94,604.67Z"/><path class="cls-10" d="M248.5,635.94a9,9,0,0,1-6.3-2.48,39.81,39.81,0,0,1-10.92-16c-1.69-4.64-.86-9.18,1-13.61.33-.77.73-1,1.56-.78a10.23,10.23,0,0,0,3.11.71c1.67,0,2.17.59,2.12,2.21a45.49,45.49,0,0,0,6.64,24.7C246.7,632.36,247.52,634.08,248.5,635.94Z"/><path class="cls-8" d="M277,605.22c-4.77,11.26-5.34,22.08-.05,33a5.87,5.87,0,0,1-6.23-3.16c-1.72-2.87-2.43-6.1-3.23-9.3a105.23,105.23,0,0,1-2.25-16.39,10,10,0,0,1,.1-1.73c.12-1.24.64-1.88,2.05-1.81A43.06,43.06,0,0,0,277,605.22Z"/><path class="cls-10" d="M312.65,680.15c-5-2.08-6.92-6.1-7.12-11.1-.18-4.46-.19-8.94-.22-13.4,0-2.2.89-2.91,3.08-2.56a14.06,14.06,0,0,1,5,2.23c1,.62.89,1.88,1.13,2.88a32.32,32.32,0,0,1,.41,11.56,54.38,54.38,0,0,1-1.44,8.3A7.83,7.83,0,0,1,312.65,680.15Z"/><path class="cls-10" d="M482.52,663.46a30.54,30.54,0,0,1,1.3-10.36,3.75,3.75,0,0,1,3.83-2.83,23.37,23.37,0,0,1,6.07.46c2.47.59,3.56,2.33,2.32,4.49-3,5.21-6.06,10.39-10.05,14.93a4.52,4.52,0,0,1-.63.61c-.59.43-1.1,1.3-1.95.89-.67-.33-.47-1.18-.53-1.84A43.22,43.22,0,0,1,482.52,663.46Z"/><path class="cls-8" d="M598.9,521.53l-.06-1,.81,0c2,6.95,3.61,13.95,2.42,21.25s-3.65,14.08-9.08,19.44a23.06,23.06,0,0,1-12.18,5.8c1.65-1.3,3-2.92,4.56-4.3a71.55,71.55,0,0,0,10.27-11.1c4.17-5.56,4.82-11.91,4.26-18.57a98.92,98.92,0,0,1-.8-10.74c0-.08.1-.19.07-.26A3.87,3.87,0,0,0,598.9,521.53Z"/><path class="cls-8" d="M238.21,581.78c2.58,0,5,2,5.13,4.22s-2.63,4.47-5.26,4.43c-2.47,0-4.83-2-5-4.07C233,584.08,235.52,581.8,238.21,581.78Z"/><path class="cls-8" d="M271.91,598a41.27,41.27,0,0,1-6.23-.84,1,1,0,0,1-.87-1.2c.27-3.54,4.85-6.6,8.16-5.4a2.07,2.07,0,0,1,1.37,2.3,32.06,32.06,0,0,1-.6,4C273.47,598.13,272.32,597.84,271.91,598Z"/><path class="cls-8" d="M255.61,594.22c-2.36,0-4.55-1.57-4.56-3.25s2.2-3.33,4.48-3.38,4.79,1.73,4.74,3.46S257.9,594.23,255.61,594.22Z"/><path class="cls-8" d="M285.24,599.18l-1.5-.28c-2.35-.42-3.05-1.3-3-3.75.05-1.89,1.15-2.93,3.41-3.21,1.75-.22,3,.68,3.56,2.65a16.76,16.76,0,0,1,.4,1.7C288.58,598.71,288,599.33,285.24,599.18Z"/><path class="cls-3" d="M599.65,520.44l-.81,0c-.12-3.19-.3-6.38-.34-9.58-.06-4.91,0-9.82.2-14.74C600,504.23,600.73,512.3,599.65,520.44Z"/><path class="cls-3" d="M176.21,461.37c-.58.22-.41.81-.62,1.21a7.84,7.84,0,0,1-1-3.62C175.29,459.8,176.15,460.32,176.21,461.37Z"/><path class="cls-3" d="M220.21,543.69c.36-.11.79-.09,1-.52.63.31.83.93,1.19,1.68A2.89,2.89,0,0,1,220.21,543.69Z"/><path class="cls-3" d="M597.45,494.73a1,1,0,0,1,1.29-.46C598.49,494.94,597.91,494.66,597.45,494.73Z"/><path class="cls-3" d="M219.47,543.17c.33,0,.54.06.57.41A.5.5,0,0,1,219.47,543.17Z"/><path class="cls-3" d="M598.9,521.53a3.87,3.87,0,0,1,.27.43c0,.07,0,.17-.07.26a2.75,2.75,0,0,1-.32-.44S598.86,521.61,598.9,521.53Z"/><path class="cls-3" d="M598.7,491.3c0-.23-.09-.46-.12-.7a4,4,0,0,1,.22.47C598.82,491.13,598.73,491.22,598.7,491.3Z"/><path class="cls-6" d="M527.89,84v0Z"/><polygon class="cls-2" points="269.37 85.36 269.44 85.51 269.27 85.49 269.37 85.36"/><polygon class="cls-2" points="270.54 84.78 270.59 84.91 270.45 84.89 270.54 84.78"/><path class="cls-11" d="M164.71,310c0-31.28,5.34-59.77,16.12-87.23a234.88,234.88,0,0,1,52.91-80.25,235.74,235.74,0,0,1,55.72-41,232.6,232.6,0,0,1,74.41-24.36c7.19-1.09,14.45-1.75,21.74-2.14,5.06-.27,10.11-.33,15.16-.29a230.81,230.81,0,0,1,78.43,14.3,228.3,228.3,0,0,1,49.45,25.3,238.19,238.19,0,0,1,30.84,24.87A233.66,233.66,0,0,1,599.23,189a231.19,231.19,0,0,1,28.58,75.09,233.52,233.52,0,0,1,4,54A233.76,233.76,0,0,1,440,538.37c-9.15,1.68-17.58,5.3-25.74,9.57-5,2.61-8.72,6.76-12.26,11.08-1.45,1.77-1.94,1.82-3.31,0-6.11-8.22-14.55-12.88-23.9-16.46-6.45-2.46-13.17-3.28-19.83-4.51A234,234,0,0,1,172.84,369.93a234.26,234.26,0,0,1-7.69-46.22A136.69,136.69,0,0,1,164.71,310ZM430.2,140.84c0-.27,0-.54.07-.82l67-30.93c-.25-.37-.32-.57-.46-.65-.67-.39-1.35-.76-2.06-1.1a214.82,214.82,0,0,0-36-13.51,222.32,222.32,0,0,0-50.6-7.91A222.75,222.75,0,0,0,196.56,216.49a222.2,222.2,0,0,0-14.67,44.23A228.11,228.11,0,0,0,177,299.14a228.69,228.69,0,0,0,4.81,55.95,220.94,220.94,0,0,0,20.83,57.13,218,218,0,0,0,19.14,30,222.34,222.34,0,0,0,26.63,29.34,244.87,244.87,0,0,0,26.25,20.86c2.14,1.48,2.2,1.46,3.4-.76q6.42-11.79,12.77-23.63,13.77-25.59,27.52-51.18c.44-.8,1.26-1.55.75-2.79-4.62-.15-9.29-.15-13.94-.44-11.95-.76-23.91-1.28-35.86-1.92-.83-.05-2,.35-2.38-.57-.42-1.1.83-1.62,1.5-2.23q16.28-14.65,32.58-29.28,12.69-11.43,25.32-22.93c.78-.71,2-1.22,2-2.63-9.28-.42-18.41-.86-27.55-1.25-10.21-.44-20.42-.83-30.63-1.26-.53,0-1.22.21-1.52-1L293,331.94l24.61-18.79c8.2-6.26,16.43-12.48,24.6-18.79s16.35-12.33,24.36-18.74A1.69,1.69,0,0,0,365,275c-9.43-.34-18.86-.7-28.3-1-10.41-.31-20.82-.56-31.23-.85a12.93,12.93,0,0,1-4.65-.76c10-5.72,19.51-11,29-16.4l29-16.36,28.74-16.21Q402,215.22,416.34,207c0-.23-.07-.47-.11-.7l-13.58-4-13.72-4.06c-4.66-1.38-9.35-2.69-14-4.13-4.47-1.37-9.06-2.41-13.41-4.13,0-.21,0-.43,0-.65l86.12-38.62ZM302.58,508a30.89,30.89,0,0,0,6.68,3.53,226.56,226.56,0,0,0,42.91,14,209.55,209.55,0,0,0,35.15,4.71,217.11,217.11,0,0,0,27.11-.29c7.07-.58,14.1-1.3,21.1-2.41A210.3,210.3,0,0,0,466.67,520a222.33,222.33,0,0,0,75.17-41.37,209.44,209.44,0,0,0,24.23-23.61,236.21,236.21,0,0,0,18.15-23.54,224.51,224.51,0,0,0,19.11-35.06A210.3,210.3,0,0,0,613.69,367a215.35,215.35,0,0,0,6.09-30.84c.64-5.31,1.27-10.61,1.51-15.94.27-6,.12-12.07.16-18.1a170.68,170.68,0,0,0-2-25.26,227.06,227.06,0,0,0-6.75-31.31,219.93,219.93,0,0,0-21.87-50.47,225.06,225.06,0,0,0-52.22-60.34,177.06,177.06,0,0,0-18-13c-1.76-1.09-1.8-1-2.76.74q-3.58,6.69-7.14,13.4c-3.44,6.54-6.88,13.09-10.27,19.66-.89,1.73-.7,2.09,1.23,2,4.07-.15,8.15-.4,12.22-.69,7.55-.54,15.12-1,22.64-1.78,4.07-.43,8.16-.18,12.2-.9a4.72,4.72,0,0,1,3.71.5L534,170.63q-9.28,8-18.55,16c-6.12,5.27-12.12,10.67-18.37,15.77-9.19,7.49-16.79,14.21-18,16.4,1,.26,1.89.54,2.83.76q29.24,6.81,58.47,13.65c1,.24,2.79-.18,3,1.17s-1.46,1.62-2.4,2.24Q501.07,263.3,461.12,290a7.77,7.77,0,0,0-2.35,1.89c2,.24,3.84.57,5.65.64,6.5.23,13,.75,19.49,1.14,6.69.4,13.38.74,20.07,1.19,8.44.56,16.89.89,25.33,1.32a4.26,4.26,0,0,1,3.28,1.15l-93.14,60.55c.16.74.46.74.73.8,4.09.91,8.27,1.1,12.4,1.67,5.48.75,11,1.31,16.48,2s10.77,1.42,16.17,2.08c5.59.68,11.19,1.25,16.77,2a5,5,0,0,1,3.32,1.27c-34.42,18.22-68.65,36.13-103.39,54.52,4.95,2.14,9.31,4,13.63,5.91s8.74,3.41,13.19,5.9c-1.14.64-1.79,1.05-2.48,1.39l-26.74,13.1q-18.07,8.88-36.16,17.76c-2.21,1.09-2.24,1.38-.33,2.88,3.37,2.63,6.79,5.21,10.16,7.84,1,.75,2.64,1.26,2.36,2.61-.21,1-1.89,1.15-2.94,1.56Q347.3,490.83,322,500.51Zm137-211.42c-.07-.22-.13-.45-.19-.67l86.16-57.79a4.29,4.29,0,0,0-2.54-1q-28.33-6.87-56.67-13.76c-.8-.19-2,.06-2.3-.89-.33-1.13,1-1.48,1.6-2.18a5.3,5.3,0,0,1,.67-.57q31.61-27.28,63.2-54.6c.8-.69,1.94-1.17,2.22-2.52-2.51.19-4.83.35-7.16.54L489.4,166c-.76.07-1.57.28-2.16-.66.47-.89,1-1.84,1.46-2.78q10.91-20.33,21.8-40.64c.82-1.53,2.49-3.16,2.14-4.63-.39-1.67-2.88-2-4.32-3.06-1.79-1.33-3.34-1.27-5.35-.33-18.4,8.62-36.86,17.12-55.29,25.68a5.49,5.49,0,0,0-2.48,1.47c5.65,3.55,11.73,6.34,17.71,10.34-27.31,12.4-54.15,24.37-81.44,36.79l53.16,15.67a8.72,8.72,0,0,1-3.35,2.51Q380.6,235.3,329.91,264.23c-.76.43-1.74.66-2.23,1.73a10.07,10.07,0,0,0,1.06.18l40.56,1.47q7.44.25,14.89.56c.6,0,1.47-.28,1.68.69.16.73-.52.95-1,1.29l-4.64,3.54-89.92,68.92-2.58,2c2.41.16,4.1.3,5.8.38l46.67,2.06c1.27.06,2.54.1,3.79.25s1.36.7.58,1.52c-1.13,1.2-2.35,2.33-3.57,3.44l-54.93,50.29a5.21,5.21,0,0,0-2,2.5l46.68,2.46c.35.73,0,1.08-.27,1.5l-39.57,73.45q-3.6,6.67-7.18,13.36c-.93,1.76-.92,1.81.84,2.87,2.08,1.26,4.25,2.37,6.27,3.7a5.17,5.17,0,0,0,5.17.42c21.16-8.09,42.36-16.08,63.54-24.12.79-.3,1.75-.37,2.39-1.33-4.64-3.61-9.28-7.24-14.39-11.23l64-31.74c-5-2-9.4-3.78-13.8-5.57s-8.75-3.29-13.43-5.53l96.46-51.38c0-.18-.07-.35-.11-.53l-61.05-8-.18-.78c15.46-10.21,31-20.27,46.52-30.41l46.58-30.41c0-.19-.09-.38-.13-.57Z"/><path class="cls-12" d="M412.68,610.72c.78,1.23.56,2.65.63,3.94A111.13,111.13,0,0,0,417.48,639a38.3,38.3,0,0,0,3.49,8.61,2.32,2.32,0,0,1-.16,2.9c-4,5.38-7.91,10.81-11.9,16.19-1.62,2.18-1.91,2.07-3.12-.51-3.32-7.08-3.94-14.52-3.21-22.2a94.5,94.5,0,0,1,8.9-32.1C411.68,611.47,411.75,611,412.68,610.72Z"/><path class="cls-12" d="M396.07,650a35.88,35.88,0,0,1-3.71,16.79c-.88,1.88-1.29,2-2.52.32-4.17-5.6-8.28-11.26-12.41-16.89a1.85,1.85,0,0,1-.19-2.15c5.7-11.26,7.16-23.48,8.07-35.81,0-.3,0-.6,0-.88a.63.63,0,0,1,.56-.57.67.67,0,0,1,.69.39c.08.18.2.34.29.51C392.07,621.4,396.05,637.71,396.07,650Z"/><path class="cls-13" d="M439.61,296.54l72.79,4.69.12.57L466,332.21c-15.5,10.14-31.06,20.2-46.52,30.41.06.26.12.52.17.78l61,8,.12.53-96.46,51.38c4.68,2.24,9.1,3.77,13.43,5.53s8.8,3.55,13.8,5.57l-64,31.74L362,477.39c-.65,1-1.6,1-2.39,1.33-21.18,8-42.38,16-63.54,24.12a5.19,5.19,0,0,1-5.17-.42c-2-1.33-4.2-2.44-6.27-3.7-1.77-1.06-1.78-1.11-.84-2.87q3.57-6.69,7.18-13.36L330.5,409c.23-.42.61-.77.27-1.5l-46.69-2.46a5.28,5.28,0,0,1,2-2.5q27.45-25.15,54.93-50.29c1.22-1.12,2.44-2.24,3.57-3.44.77-.82.55-1.38-.58-1.52s-2.52-.19-3.79-.25L293.56,345c-1.69-.07-3.38-.21-5.79-.37,1.26-1,1.91-1.52,2.58-2l89.92-68.92,4.64-3.54c.44-.34,1.12-.56,1-1.29-.22-1-1.08-.66-1.69-.69-5-.21-9.92-.39-14.88-.57l-40.56-1.46a10.6,10.6,0,0,1-1.07-.18c.5-1.07,1.48-1.3,2.24-1.74l101.37-57.86a8.79,8.79,0,0,0,3.35-2.51l-53.16-15.67c27.29-12.42,54.13-24.39,81.44-36.79-6-4-12.06-6.79-17.72-10.34a5.57,5.57,0,0,1,2.49-1.47C466.11,131,484.57,122.52,503,113.9c2-.94,3.56-1,5.34.33,1.45,1.07,3.94,1.38,4.33,3.06.35,1.47-1.32,3.1-2.14,4.63q-10.89,20.33-21.8,40.64c-.5.94-1,1.89-1.46,2.78.59.94,1.4.72,2.16.66l35.2-2.94c2.33-.19,4.65-.35,7.16-.55-.28,1.36-1.42,1.84-2.22,2.53q-31.57,27.33-63.21,54.6a6,6,0,0,0-.66.57c-.6.7-1.94,1-1.6,2.18.27,1,1.5.69,2.3.89Q494.71,230.18,523,237a4.25,4.25,0,0,1,2.54,1l-86.17,57.79C439.48,296.09,439.54,296.32,439.61,296.54Z"/><circle class="cls-14" cx="400.07" cy="308.27" r="222.54"/><g id="Layer_2" data-name="Layer 2"><g id="Layer_1-2" data-name="Layer 1-2"><path class="cls-15" d="M314.5,307.72a25.26,25.26,0,0,0,23.8,26.6h1.5a25.25,25.25,0,1,0-25.3-26.6Z"/><path class="cls-15" d="M220.3,301.22a8.16,8.16,0,1,0,7.7,8.6,8.1,8.1,0,0,0-7.7-8.6Z"/><path class="cls-15" d="M312.9,161.12a8.18,8.18,0,0,0-7.4-14.6,8.18,8.18,0,0,0,7.4,14.6Z"/><path class="cls-15" d="M338.5,205.82a12.59,12.59,0,1,0-16.9-5.6A12.62,12.62,0,0,0,338.5,205.82Z"/><path class="cls-15" d="M252.3,236.52a10.4,10.4,0,1,0-3-14.4h0A10.35,10.35,0,0,0,252.3,236.52Z"/><path class="cls-15" d="M267.6,296.72A12.62,12.62,0,1,0,279.5,310h0A12.63,12.63,0,0,0,267.6,296.72Z"/><path class="cls-15" d="M253.7,381.42a10.42,10.42,0,1,0,14,4.6h0a10.46,10.46,0,0,0-14-4.6Z"/><path class="cls-15" d="M302.7,270.62a14.81,14.81,0,1,0-4.3-20.5,14.72,14.72,0,0,0,4.3,20.5Z"/><path class="cls-15" d="M458.2,204.82a12.63,12.63,0,1,0-3.6-17.5h0a12.5,12.5,0,0,0,3.6,17.5Z"/><path class="cls-15" d="M484,160.32a8.17,8.17,0,1,0-2.4-11.4,8.42,8.42,0,0,0,2.4,11.4Z"/><path class="cls-15" d="M460.1,283.62a25.24,25.24,0,1,0-2.8,50.4h1.4a25.22,25.22,0,0,0,1.4-50.4Z"/><path class="cls-15" d="M346.8,268.82a25.27,25.27,0,1,0,11.2-34,25.3,25.3,0,0,0-11.2,34Z"/><path class="cls-15" d="M544.7,236.52a10.4,10.4,0,1,0-14.1-4.6,10.58,10.58,0,0,0,14.1,4.6Z"/><path class="cls-15" d="M480.7,244.52a14.83,14.83,0,1,0,19.9,6.6A14.83,14.83,0,0,0,480.7,244.52Z"/><path class="cls-15" d="M398.2,156.52a10.42,10.42,0,1,0-9.8-11.1,10.54,10.54,0,0,0,9.8,11.1Z"/><path class="cls-15" d="M398.1,221.82a14.82,14.82,0,1,0-14-15.6,14.72,14.72,0,0,0,14,15.6Z"/><path class="cls-15" d="M317.7,373.42a14.83,14.83,0,1,0-19.9-6.6A14.83,14.83,0,0,0,317.7,373.42Z"/><path class="cls-15" d="M407.7,243.52a25.24,25.24,0,1,0,21.1-11.4A25.18,25.18,0,0,0,407.7,243.52Z"/><path class="cls-15" d="M451.6,349.12A25.25,25.25,0,1,0,440.4,383h0a25.13,25.13,0,0,0,11.3-33.7C451.7,349.22,451.7,349.22,451.6,349.12Z"/><path class="cls-15" d="M495.7,347.32a14.81,14.81,0,1,0,4.3,20.5,14.72,14.72,0,0,0-4.3-20.5Z"/><path class="cls-15" d="M544.1,309.42a12.62,12.62,0,1,0-13.3,11.9h0A12.69,12.69,0,0,0,544.1,309.42Z"/><path class="cls-15" d="M579,300.42a8.16,8.16,0,1,0,7.7,8.6A8.23,8.23,0,0,0,579,300.42Z"/><path class="cls-15" d="M546.1,381.42a10.4,10.4,0,1,0,3,14.4,10.35,10.35,0,0,0-3-14.4Z"/><path class="cls-15" d="M314.3,457.62a8.15,8.15,0,1,0,2.3,11.3h0A8,8,0,0,0,314.3,457.62Z"/><path class="cls-15" d="M485.5,456.82a8.18,8.18,0,0,0,7.4,14.6,8.18,8.18,0,0,0-7.4-14.6Z"/><path class="cls-15" d="M390.7,374.42a25.28,25.28,0,1,0-35,7.3,25.36,25.36,0,0,0,35-7.3Z"/><path class="cls-15" d="M340.2,413.12a12.63,12.63,0,1,0,3.6,17.5h0A12.51,12.51,0,0,0,340.2,413.12Z"/><path class="cls-15" d="M399.1,461.42a10.42,10.42,0,1,0,9.8,11.1,10.54,10.54,0,0,0-9.8-11.1Z"/><path class="cls-15" d="M399.2,396.12a14.82,14.82,0,1,0,14,15.6,14.72,14.72,0,0,0-14-15.6Z"/><path class="cls-15" d="M459.9,412.12a12.63,12.63,0,1,0,17.1,5.6,12.64,12.64,0,0,0-17.1-5.6Z"/></g></g></svg>